Coordinates
version=1
nRows=11
nColumns=26
inDegrees=yes

Units are S.I. units (second, meters, Newtons, ...)
If the header above contains a line with 'inDegrees', this indicates whether rotational values are in degrees (yes) or radians (no).

endheader
time	pelvis_tilt	pelvis_list	pelvis_rotation	pelvis_tx	pelvis_ty	pelvis_tz	hip_flexion_r	hip_adduction_r	hip_rotation_r	knee_angle_r	knee_angle_r_beta	ankle_angle_r	subtalar_angle_r	mtp_angle_r	hip_flexion_l	hip_adduction_l	hip_rotation_l	knee_angle_l	knee_angle_l_beta	ankle_angle_l	subtalar_angle_l	mtp_angle_l	lumbar_extension	lumbar_bending	lumbar_rotation
      0.46800000	     -5.74246517	     11.67257407	     -7.57089970	     -1.60468037	      0.98316100	      0.19018527	    -20.02954320	    -12.60917702	    -16.80768054	     16.48647146	      0.28774321	     -6.19040552	      0.00000000	     36.02741672	     56.01811966	      5.95439769	     -1.71870792	    118.76944114	      2.07291780	     24.60696038	      0.00000000	     51.17099730	     -4.33785489	    -11.68782807	     17.72678188
      0.47200000	     -6.60304599	     12.81213228	     -7.12874031	     -1.57635197	      0.98344742	      0.19017875	    -20.71771708	    -13.76595182	    -18.35526771	     15.63510055	      0.27288398	     -9.90314202	      0.00000000	     37.39368508	     58.25369644	      6.44901655	     -3.13972420	    116.11840235	      2.02664844	     24.86599098	      0.00000000	     50.99331163	     -2.90513484	    -12.96996071	     18.16414631
      0.47600000	     -7.46710129	     14.09087996	     -6.76616918	     -1.54885729	      0.98394518	      0.18944211	    -21.03564827	    -15.21458111	    -19.77343088	     15.49957275	      0.27051858	    -13.41042495	      0.00000000	     41.11489052	     60.42994127	      7.17181672	     -4.60561450	    113.25392090	      1.97665381	     24.80691225	      0.00000000	     49.67773820	     -1.58279974	    -14.34793259	     18.72423605
      0.48000000	     -8.33772962	     14.65254535	     -5.93250858	     -1.52028467	      0.98447349	      0.18974311	    -21.66655657	    -15.56339180	    -21.39287432	     15.10007710	      0.26354606	    -16.54779576	      0.00000000	     42.31210709	     62.21051600	      7.47946110	     -5.44750710	    110.41956062	      1.92718489	     24.90308183	      0.00000000	     49.64564643	     -0.32281167	    -15.12935794	     18.84466375
      0.48400000	     -9.25444427	     15.71302166	     -5.62644085	     -1.49316665	      0.98509787	      0.18914904	    -21.59473800	    -16.82395286	    -22.45257043	     15.71888774	      0.27434635	    -18.12183542	      0.00000000	     46.06157493	     64.05451666	      7.86363604	     -7.00132876	    107.15297915	      1.87017229	     24.50574107	      0.00000000	     47.62041079	      0.96445907	    -16.31505576	     19.45871284
      0.48800000	    -10.11861563	     16.24413107	     -5.06513190	     -1.46567367	      0.98565636	      0.18900863	    -21.71756025	    -17.35588253	    -23.34691570	     16.29718017	      0.28443945	    -19.68013902	      0.00000000	     46.67601391	     65.62655922	      8.17275561	     -7.92776176	    103.96278618	      1.81449292	     24.61641748	      0.00000000	     47.57786716	      2.08782628	    -17.01652717	     19.77804430
      0.49200000	    -10.60564958	     16.20863397	     -4.55186276	     -1.43864642	      0.98662451	      0.18899834	    -22.12269889	    -17.20391895	    -23.34160635	     17.01743631	      0.29701029	    -20.41540762	      0.00000000	     46.92640152	     66.46087555	      8.18352327	     -8.34842074	    100.71166754	      1.75775019	     24.83809807	      0.00000000	     47.56001583	      2.59520701	    -17.15360053	     19.92580018
      0.49600000	    -11.43224069	     16.46572508	     -4.13932065	     -1.41191585	      0.98724491	      0.18905090	    -21.83176831	    -17.47011316	    -23.01108296	     18.40837374	      0.32128673	    -20.74166081	      0.00000000	     48.53163106	     67.40288404	      8.09445541	     -9.25642347	     96.93320560	      1.69180359	     23.27487312	      0.00000000	     40.52951129	      3.54583130	    -17.58441438	     20.26044709
      0.50000000	    -11.89573376	     16.32542122	     -3.62510327	     -1.38509882	      0.98839135	      0.18894098	    -22.02259282	    -17.18019923	    -22.12341040	     19.73376001	      0.34441909	    -21.46779202	      0.00000000	     48.61645495	     67.81899121	      8.11746378	     -9.70821904	     93.34510948	      1.62917950	     23.32327697	      0.00000000	     40.63036628	      3.94539739	    -17.61168114	     20.27488488
      0.50400000	    -12.34079945	     16.20311212	     -3.23983930	     -1.35877411	      0.98962853	      0.18890383	    -21.89035801	    -17.00722574	    -21.03811420	     21.71824332	      0.37905485	    -21.38753497	      0.00000000	     48.61686742	     67.93547075	      8.03460654	    -10.24110891	     89.37170153	      1.55983045	     21.94149156	      0.00000000	     35.71548386	      4.30380850	    -17.66510682	     20.46540125
      0.50800000	    -12.60499922	     15.82975078	     -2.73861290	     -1.33258146	      0.99108147	      0.18876192	    -21.84664045	    -16.42687813	    -19.62335852	     23.85349815	      0.41632208	    -21.37629151	      0.00000000	     48.36318533	     67.81243424	      8.08909137	    -10.55375925	     85.42704728	      1.49098325	     21.54854808	      0.00000000	     35.71584149	      4.33402458	    -17.47336122	     20.37403999
